<?xml version="1.0" encoding="UTF-8"?>
<svg width="24px" height="24px" viewBox="0 0 24 24" version="1.1" xmlns="http://www.w3.org/2000/svg">
    <g stroke="none" stroke-width="1" fill="none" fill-rule="evenodd">
        <path d="M19,3 L5,3 C3.8954305,3 3,3.8954305 3,5 L3,19 C3,20.1045695 3.8954305,21 5,21 L19,21 C20.1045695,21 21,20.1045695 21,19 L21,5 C21,3.8954305 20.1045695,3 19,3 Z" fill="#4F46E5"/>
        <path d="M7,7 L17,7 L17,9 L7,9 L7,7 Z M7,11 L17,11 L17,13 L7,13 L7,11 Z M7,15 L13,15 L13,17 L7,17 L7,15 Z" fill="#FFFFFF"/>
    </g>
</svg> 